<?xml version="1.0" encoding="utf-8"?>
<!-- Generator: Adobe Illustrator 25.2.1, SVG Export Plug-In . SVG Version: 6.00 Build 0)  -->
<!DOCTYPE svg PUBLIC "-//W3C//DTD SVG 1.1//EN" "http://www.w3.org/Graphics/SVG/1.1/DTD/svg11.dtd" [
	<!ENTITY ns_extend "http://ns.adobe.com/Extensibility/1.0/">
	<!ENTITY ns_ai "http://ns.adobe.com/AdobeIllustrator/10.0/">
	<!ENTITY ns_graphs "http://ns.adobe.com/Graphs/1.0/">
	<!ENTITY ns_vars "http://ns.adobe.com/Variables/1.0/">
	<!ENTITY ns_imrep "http://ns.adobe.com/ImageReplacement/1.0/">
	<!ENTITY ns_sfw "http://ns.adobe.com/SaveForWeb/1.0/">
	<!ENTITY ns_custom "http://ns.adobe.com/GenericCustomNamespace/1.0/">
	<!ENTITY ns_adobe_xpath "http://ns.adobe.com/XPath/1.0/">
]>
<svg version="1.1" id="Capa_1" xmlns:x="&ns_extend;" xmlns:i="&ns_ai;" xmlns:graph="&ns_graphs;"
	 xmlns="http://www.w3.org/2000/svg" xmlns:xlink="http://www.w3.org/1999/xlink" x="0px" y="0px" viewBox="0 0 595.3 841.9"
	 style="enable-background:new 0 0 595.3 841.9;" xml:space="preserve">
<style type="text/css">
	.st0{fill:#FFFFFF;}
</style>
<metadata>
	<sfw  xmlns="&ns_sfw;">
		<slices></slices>
		<sliceSourceBounds  bottomLeftOrigin="true" height="558.3" width="558.3" x="18.5" y="-719.8"></sliceSourceBounds>
	</sfw>
</metadata>
<path class="st0" d="M379.8,588.2c-114.6,73.4-249.2,34.4-315.3-55.3c-68.6-93.1-59.7-221,21.4-302.6
	c80.7-81.3,207.8-91.6,300.7-25.5c91,64.8,133.5,201,59,317.4c1.7,1.8,3.5,3.7,5.3,5.6c37.1,37.2,74.4,74.2,111.4,111.5
	c21.8,22,18.4,56.2-6.9,72.9c-18.5,12.2-42.4,9.5-59.1-7c-32.1-31.9-64.1-64-96.1-96C393.5,602.3,386.8,595.3,379.8,588.2z
	 M88.3,393.9c-0.1,89.2,73.3,162.6,162.5,162.8c89.1,0.2,162.7-73.1,163-162.3c0.3-89.4-73.4-163.3-162.9-163.2
	C161.8,231.3,88.4,304.7,88.3,393.9z"/>
</svg>
